<svg width="3300" height="2200" viewBox="0 0 3300 2200" fill="none" xmlns="http://www.w3.org/2000/svg">
<g id="carbsIcon" clip-path="url(#clip0_258_231)">
<g id="Notes">
<path id="artboard" d="M3300 0H0V2200H3300V0Z" fill="white"/>
<path id="Vector" d="M263 292H3036" stroke="black" stroke-width="0.5"/>
<text id="Weight/Scale Variations" fill="black" style="white-space: pre" xml:space="preserve" font-family="Inter" font-size="13" font-weight="bold" letter-spacing="0em"><tspan x="263" y="321.727">Weight/Scale Variations</tspan></text>
<text id="Ultralight" fill="black" style="white-space: pre" xml:space="preserve" font-family="Inter" font-size="13" letter-spacing="0em"><tspan x="531.661" y="321.727">Ultralight</tspan></text>
<text id="Thin" fill="black" style="white-space: pre" xml:space="preserve" font-family="Inter" font-size="13" letter-spacing="0em"><tspan x="843.067" y="321.727">Thin</tspan></text>
<text id="Light" fill="black" style="white-space: pre" xml:space="preserve" font-family="Inter" font-size="13" letter-spacing="0em"><tspan x="1137.77" y="321.727">Light</tspan></text>
<text id="Regular" fill="black" style="white-space: pre" xml:space="preserve" font-family="Inter" font-size="13" letter-spacing="0em"><tspan x="1426.58" y="321.727">Regular</tspan></text>
<text id="Medium" fill="black" style="white-space: pre" xml:space="preserve" font-family="Inter" font-size="13" letter-spacing="0em"><tspan x="1721.99" y="321.727">Medium</tspan></text>
<text id="Semibold" fill="black" style="white-space: pre" xml:space="preserve" font-family="Inter" font-size="13" letter-spacing="0em"><tspan x="2014.65" y="321.727">Semibold</tspan></text>
<text id="Bold" fill="black" style="white-space: pre" xml:space="preserve" font-family="Inter" font-size="13" letter-spacing="0em"><tspan x="2326.29" y="321.727">Bold</tspan></text>
<text id="Heavy" fill="black" style="white-space: pre" xml:space="preserve" font-family="Inter" font-size="13" letter-spacing="0em"><tspan x="2617.32" y="321.727">Heavy</tspan></text>
<text id="Black" fill="black" style="white-space: pre" xml:space="preserve" font-family="Inter" font-size="13" letter-spacing="0em"><tspan x="2916.8" y="321.727">Black</tspan></text>
<path id="Vector_2" d="M263 1903H3036" stroke="black" stroke-width="0.5"/>
<g id="Group">
<path id="Vector_3" d="M272.248 1933.83C276.604 1933.83 280.139 1930.3 280.139 1925.95C280.139 1921.59 276.604 1918.07 272.248 1918.07C267.902 1918.07 264.367 1921.59 264.367 1925.95C264.367 1930.3 267.902 1933.83 272.248 1933.83ZM272.248 1932.35C268.713 1932.35 265.861 1929.48 265.861 1925.95C265.861 1922.41 268.713 1919.55 272.248 1919.55C275.783 1919.55 278.645 1922.41 278.645 1925.95C278.645 1929.48 275.783 1932.35 272.248 1932.35ZM272.971 1928.79V1923.1C272.971 1922.65 272.678 1922.35 272.229 1922.35C271.799 1922.35 271.506 1922.65 271.506 1923.1V1928.79C271.506 1929.23 271.799 1929.53 272.229 1929.53C272.678 1929.53 272.971 1929.23 272.971 1928.79ZM269.406 1926.67H275.09C275.529 1926.67 275.832 1926.38 275.832 1925.95C275.832 1925.51 275.529 1925.21 275.09 1925.21H269.406C268.957 1925.21 268.654 1925.51 268.654 1925.95C268.654 1926.38 268.957 1926.67 269.406 1926.67Z" fill="black"/>
</g>
<g id="Group_2">
<path id="Vector_4" d="M293.215 1935.91C298.713 1935.91 303.176 1931.45 303.176 1925.95C303.176 1920.45 298.713 1915.99 293.215 1915.99C287.717 1915.99 283.254 1920.45 283.254 1925.95C283.254 1931.45 287.717 1935.91 293.215 1935.91ZM293.215 1934.25C288.625 1934.25 284.914 1930.54 284.914 1925.95C284.914 1921.36 288.625 1917.65 293.215 1917.65C297.805 1917.65 301.516 1921.36 301.516 1925.95C301.516 1930.54 297.805 1934.25 293.215 1934.25ZM294.026 1929.63V1922.25C294.026 1921.75 293.684 1921.41 293.195 1921.41C292.717 1921.41 292.385 1921.75 292.385 1922.25V1929.63C292.385 1930.12 292.717 1930.46 293.195 1930.46C293.684 1930.46 294.026 1930.13 294.026 1929.63ZM289.514 1926.75H296.906C297.395 1926.75 297.736 1926.43 297.736 1925.95C297.736 1925.46 297.395 1925.12 296.906 1925.12H289.514C289.016 1925.12 288.684 1925.46 288.684 1925.95C288.684 1926.43 289.016 1926.75 289.514 1926.75Z" fill="black"/>
</g>
<g id="Group_3">
<path id="Vector_5" d="M319.895 1938.66C326.916 1938.66 332.619 1932.97 332.619 1925.95C332.619 1918.93 326.916 1913.22 319.895 1913.22C312.873 1913.22 307.18 1918.93 307.18 1925.95C307.18 1932.97 312.873 1938.66 319.895 1938.66ZM319.895 1936.85C313.869 1936.85 308.996 1931.97 308.996 1925.95C308.996 1919.92 313.869 1915.05 319.895 1915.05C325.92 1915.05 330.793 1919.92 330.793 1925.95C330.793 1931.97 325.92 1936.85 319.895 1936.85ZM320.783 1930.78V1921.09C320.783 1920.54 320.412 1920.16 319.875 1920.16C319.358 1920.16 318.987 1920.54 318.987 1921.09V1930.78C318.987 1931.32 319.358 1931.7 319.875 1931.7C320.412 1931.7 320.783 1931.33 320.783 1930.78ZM315.041 1926.83H324.738C325.276 1926.83 325.656 1926.47 325.656 1925.95C325.656 1925.4 325.285 1925.03 324.738 1925.03H315.041C314.494 1925.03 314.123 1925.4 314.123 1925.95C314.123 1926.47 314.494 1926.83 315.041 1926.83Z" fill="black"/>
</g>
<text id="Design Variations" fill="black" style="white-space: pre" xml:space="preserve" font-family="Inter" font-size="13" font-weight="bold" letter-spacing="0em"><tspan x="263" y="1952.73">Design Variations</tspan></text>
<text id="Symbols are supported in up to nine weights and three scales." fill="black" style="white-space: pre" xml:space="preserve" font-family="Inter" font-size="13" letter-spacing="0em"><tspan x="263" y="1970.73">Symbols are supported in up to nine weights and three scales.</tspan></text>
<text id="For optimal layout with text and other symbols, vertically align" fill="black" style="white-space: pre" xml:space="preserve" font-family="Inter" font-size="13" letter-spacing="0em"><tspan x="263" y="1988.73">For optimal layout with text and other symbols, vertically align</tspan></text>
<text id="symbols with the adjacent text." fill="black" style="white-space: pre" xml:space="preserve" font-family="Inter" font-size="13" letter-spacing="0em"><tspan x="263" y="2006.73">symbols with the adjacent text.</tspan></text>
<path id="Vector_6" d="M776 1919V1933" stroke="#00AEEF" stroke-width="0.5"/>
<g id="Group_4">
<path id="Vector_7" d="M779.311 1933.16C779.828 1933.16 780.082 1932.96 780.268 1932.41L784.379 1920.91H784.428L788.549 1932.41C788.734 1932.96 788.988 1933.16 789.496 1933.16C790.014 1933.16 790.346 1932.84 790.346 1932.36C790.346 1932.19 790.316 1932.03 790.238 1931.83L785.658 1919.63C785.434 1919.04 785.033 1918.73 784.408 1918.73C783.803 1918.73 783.393 1919.03 783.178 1919.62L778.598 1931.84C778.52 1932.04 778.49 1932.2 778.49 1932.37C778.49 1932.85 778.803 1933.16 779.311 1933.16ZM781.352 1928.97H787.484C787.885 1928.97 788.217 1928.63 788.217 1928.23C788.217 1927.82 787.885 1927.5 787.484 1927.5H781.352C780.951 1927.5 780.619 1927.82 780.619 1928.23C780.619 1928.63 780.951 1928.97 781.352 1928.97Z" fill="black"/>
</g>
<path id="Vector_8" d="M792.836 1919V1933" stroke="#00AEEF" stroke-width="0.5"/>
<text id="Margins" fill="black" style="white-space: pre" xml:space="preserve" font-family="Inter" font-size="13" font-weight="bold" letter-spacing="0em"><tspan x="776" y="1952.73">Margins</tspan></text>
<text id="Leading and trailing margins on the left and right side of each symbol" fill="black" style="white-space: pre" xml:space="preserve" font-family="Inter" font-size="13" letter-spacing="0em"><tspan x="776" y="1970.73">Leading and trailing margins on the left and right side of each symbol</tspan></text>
<text id="can be adjusted by modifying the x-location of the margin guidelines." fill="black" style="white-space: pre" xml:space="preserve" font-family="Inter" font-size="13" letter-spacing="0em"><tspan x="776" y="1988.73">can be adjusted by modifying the x-location of the margin guidelines.</tspan></text>
<text id="Modifications are automatically applied proportionally to all" fill="black" style="white-space: pre" xml:space="preserve" font-family="Inter" font-size="13" letter-spacing="0em"><tspan x="776" y="2006.73">Modifications are automatically applied proportionally to all</tspan></text>
<text id="scales and weights." fill="black" style="white-space: pre" xml:space="preserve" font-family="Inter" font-size="13" letter-spacing="0em"><tspan x="776" y="2024.73">scales and weights.</tspan></text>
<g id="Group_5">
<path id="Vector_9" d="M1291.84 1935.63L1293.41 1937.2C1294.27 1938.08 1295.28 1938.02 1296.19 1936.99L1308.33 1923.35L1307.35 1922.37L1295.3 1935.91C1294.94 1936.3 1294.61 1936.4 1294.14 1935.93L1293.1 1934.9C1292.64 1934.45 1292.74 1934.11 1293.14 1933.74L1306.64 1921.31L1305.66 1920.34L1292.05 1932.86C1291.05 1933.78 1290.98 1934.76 1291.84 1935.63ZM1300.82 1916.13C1300.41 1916.54 1300.37 1917.11 1300.6 1917.49C1300.83 1917.85 1301.29 1918.1 1301.92 1917.94C1303.09 1917.61 1304.44 1917.46 1305.7 1918.13L1305.16 1919.55C1304.84 1920.35 1305.02 1920.93 1305.5 1921.44L1307.55 1923.5C1308.02 1923.98 1308.46 1923.99 1308.97 1923.89L1309.86 1923.74L1310.38 1924.25L1310.34 1924.7C1310.32 1925.16 1310.45 1925.56 1310.89 1926L1311.57 1926.66C1312.03 1927.12 1312.67 1927.16 1313.13 1926.7L1315.73 1924.09C1316.19 1923.62 1316.16 1923.02 1315.69 1922.56L1315.01 1921.88C1314.57 1921.44 1314.2 1921.27 1313.74 1921.3L1313.27 1921.35L1312.78 1920.86L1312.98 1919.92C1313.11 1919.38 1312.94 1918.93 1312.41 1918.4L1310.15 1916.16C1307.56 1913.6 1303.03 1913.96 1300.82 1916.13ZM1302.23 1916.54C1303.99 1915.27 1307.43 1915.41 1308.97 1916.94L1311.43 1919.38C1311.64 1919.58 1311.68 1919.74 1311.62 1920.04L1311.32 1921.37L1312.67 1922.71L1313.55 1922.66C1313.78 1922.65 1313.85 1922.67 1314.02 1922.83L1314.53 1923.33L1312.36 1925.5L1311.86 1925C1311.7 1924.83 1311.67 1924.76 1311.68 1924.52L1311.73 1923.65L1310.4 1922.31L1309.03 1922.54C1308.75 1922.6 1308.62 1922.58 1308.39 1922.37L1306.61 1920.59C1306.39 1920.38 1306.37 1920.25 1306.51 1919.91L1307.43 1917.62C1306.21 1916.35 1304.02 1916.12 1302.31 1916.7C1302.17 1916.75 1302.12 1916.62 1302.23 1916.54Z" fill="black"/>
</g>
<text id="Exporting" fill="black" style="white-space: pre" xml:space="preserve" font-family="Inter" font-size="13" font-weight="bold" letter-spacing="0em"><tspan x="1289" y="1952.73">Exporting</tspan></text>
<text id="Symbols should be outlined when exporting to ensure the" fill="black" style="white-space: pre" xml:space="preserve" font-family="Inter" font-size="13" letter-spacing="0em"><tspan x="1289" y="1970.73">Symbols should be outlined when exporting to ensure the</tspan></text>
<text id="design is preserved when submitting to Xcode." fill="black" style="white-space: pre" xml:space="preserve" font-family="Inter" font-size="13" letter-spacing="0em"><tspan x="1289" y="1988.73">design is preserved when submitting to Xcode.</tspan></text>
<text id="template-version" fill="black" style="white-space: pre" xml:space="preserve" font-family="Inter" font-size="13" letter-spacing="0em"><tspan x="2948.26" y="1932.73">Template v.7.0</tspan></text>
<text id="Requires Xcode 26 or greater" fill="black" style="white-space: pre" xml:space="preserve" font-family="Inter" font-size="13" letter-spacing="0em"><tspan x="2856.34" y="1950.73">Requires Xcode 26 or greater</tspan></text>
<text id="descriptive-name" fill="black" style="white-space: pre" xml:space="preserve" font-family="Inter" font-size="13" letter-spacing="0em"><tspan x="2853.71" y="1968.73">Generated from custom.circle</tspan></text>
<text id="Typeset at 100.0 points" fill="black" style="white-space: pre" xml:space="preserve" font-family="Inter" font-size="13" letter-spacing="0em"><tspan x="2892.56" y="1986.73">Typeset at 100.0 points</tspan></text>
<text id="Small" fill="black" style="white-space: pre" xml:space="preserve" font-family="Inter" font-size="13" letter-spacing="0em"><tspan x="263" y="725.727">Small</tspan></text>
<text id="Medium_2" fill="black" style="white-space: pre" xml:space="preserve" font-family="Inter" font-size="13" letter-spacing="0em"><tspan x="263" y="1155.73">Medium</tspan></text>
<text id="Large" fill="black" style="white-space: pre" xml:space="preserve" font-family="Inter" font-size="13" letter-spacing="0em"><tspan x="263" y="1585.73">Large</tspan></text>
</g>
<g id="Guides">
<g id="H-reference">
<path id="Vector_10" d="M339.994 696H342.638L368.328 628.868H369.03V625.541H367.123L339.994 696ZM350.688 671.52H385.981L385.231 669.272H351.438L350.688 671.52ZM394.12 696H396.764L369.638 625.541H368.433V628.868L394.12 696Z" fill="#27AAE1"/>
</g>
<path id="Baseline-S" d="M263 696H3036" stroke="#27AAE1" stroke-width="0.5"/>
<path id="Capline-S" d="M263 625.541H3036" stroke="#27AAE1" stroke-width="0.5"/>
<g id="H-reference_2">
<path id="Vector_11" d="M339.994 1126H342.638L368.328 1058.87H369.03V1055.54H367.123L339.994 1126ZM350.688 1101.52H385.981L385.231 1099.27H351.438L350.688 1101.52ZM394.12 1126H396.764L369.638 1055.54H368.433V1058.87L394.12 1126Z" fill="#27AAE1"/>
</g>
<path id="Baseline-M" d="M263 1126H3036" stroke="#27AAE1" stroke-width="0.5"/>
<path id="Capline-M" d="M263 1055.54H3036" stroke="#27AAE1" stroke-width="0.5"/>
<g id="H-reference_3">
<path id="Vector_12" d="M339.994 1556H342.638L368.328 1488.87H369.03V1485.54H367.123L339.994 1556ZM350.688 1531.52H385.981L385.231 1529.27H351.438L350.688 1531.52ZM394.12 1556H396.764L369.638 1485.54H368.433V1488.87L394.12 1556Z" fill="#27AAE1"/>
</g>
<path id="Baseline-L" d="M263 1556H3036" stroke="#27AAE1" stroke-width="0.5"/>
<path id="Capline-L" d="M263 1485.54H3036" stroke="#27AAE1" stroke-width="0.5"/>
<path id="right-margin-Black-S" d="M2982.23 600.785V720.121" stroke="#00AEEF" stroke-width="0.5"/>
<path id="left-margin-Black-S" d="M2884.57 600.785V720.121" stroke="#00AEEF" stroke-width="0.5"/>
<path id="right-margin-Regular-S" d="M1496.11 600.785V720.121" stroke="#00AEEF" stroke-width="0.5"/>
<path id="left-margin-Regular-S" d="M1403.58 600.785V720.121" stroke="#00AEEF" stroke-width="0.5"/>
<path id="right-margin-Ultralight-S" d="M603.773 600.785V720.121" stroke="#00AEEF" stroke-width="0.5"/>
<path id="left-margin-Ultralight-S" d="M515.649 600.785V720.121" stroke="#00AEEF" stroke-width="0.5"/>
</g>
<g id="Symbols">
<g id="Black-S">
<path id="Vector_13" d="M2948.49 626.002C2947.43 626.037 2946.47 626.651 2945.99 627.602L2938.68 641.614C2937.23 640.971 2935.65 640.612 2934 640.612C2930.86 640.612 2927.92 641.867 2925.76 644.056C2924.66 643.704 2923.51 643.527 2922.35 643.527C2917.7 643.527 2913.62 646.239 2911.76 650.416C2907.59 652.273 2904.88 656.365 2904.88 661.018C2904.88 662.03 2905.02 663.003 2905.28 663.933H2901.96C2900.91 663.915 2899.94 664.463 2899.4 665.369C2898.87 666.275 2898.87 667.397 2899.39 668.307C2899.92 669.217 2900.89 669.773 2901.94 669.763C2901.94 679.71 2908.18 688.178 2916.94 691.53C2916.37 692.434 2916.34 693.578 2916.86 694.51C2917.38 695.442 2918.37 696.014 2919.44 696H2948.57C2949.64 696.012 2950.63 695.438 2951.15 694.502C2951.67 693.567 2951.64 692.422 2951.06 691.519C2959.8 688.158 2966.02 679.697 2966.02 669.763H2966.05C2967.1 669.778 2968.07 669.226 2968.6 668.318C2969.13 667.41 2969.13 666.287 2968.6 665.379C2968.07 664.471 2967.1 663.918 2966.05 663.933H2962.73C2962.99 663.003 2963.13 662.03 2963.13 661.018C2963.13 657.727 2961.76 654.734 2959.49 652.597L2955.61 657.032C2956.65 658.082 2957.31 659.464 2957.31 661.018C2957.31 662.085 2957 663.072 2956.49 663.933H2911.52C2911.01 663.072 2910.7 662.085 2910.7 661.018C2910.7 658.45 2912.38 656.221 2914.87 655.478C2915.8 655.195 2916.54 654.461 2916.82 653.525C2917.56 651.032 2919.79 649.357 2922.35 649.357C2923.32 649.357 2924.28 649.621 2925.2 650.143C2926.55 650.913 2928.27 650.484 2929.1 649.169C2930.18 647.464 2932.01 646.442 2934 646.442C2936 646.442 2937.83 647.464 2938.91 649.169C2939.74 650.484 2941.46 650.913 2942.81 650.143C2944.1 649.414 2945.48 649.255 2946.75 649.511L2943.47 653.269C2942.73 654.045 2942.48 655.161 2942.81 656.177C2943.14 657.193 2944 657.947 2945.05 658.141C2946.1 658.334 2947.18 657.937 2947.85 657.106L2968.24 633.785C2969 632.931 2969.2 631.707 2968.73 630.658C2968.27 629.609 2967.23 628.93 2966.09 628.923C2965.23 628.919 2964.41 629.294 2963.86 629.947L2950.88 644.785C2949.3 643.983 2947.53 643.527 2945.66 643.527C2945.16 643.527 2944.68 643.577 2944.19 643.641L2951.15 630.3C2951.65 629.381 2951.61 628.267 2951.06 627.379C2950.51 626.492 2949.53 625.966 2948.49 626.002Z" fill="black"/>
</g>
<g id="Regular-S">
<path id="Vector_14" d="M1464.49 626.002C1463.43 626.037 1462.47 626.651 1461.99 627.602L1454.68 641.614C1453.23 640.971 1451.65 640.612 1450 640.612C1446.86 640.612 1443.92 641.867 1441.76 644.056C1440.66 643.704 1439.51 643.527 1438.35 643.527C1433.7 643.527 1429.62 646.239 1427.76 650.416C1423.59 652.273 1420.88 656.365 1420.88 661.018C1420.88 662.03 1421.02 663.003 1421.28 663.933H1417.96C1416.91 663.915 1415.94 664.463 1415.4 665.369C1414.87 666.275 1414.87 667.397 1415.39 668.307C1415.92 669.217 1416.89 669.773 1417.94 669.763C1417.94 679.71 1424.18 688.178 1432.94 691.53C1432.37 692.434 1432.34 693.578 1432.86 694.51C1433.38 695.442 1434.37 696.014 1435.44 696H1464.57C1465.64 696.012 1466.63 695.438 1467.15 694.502C1467.67 693.567 1467.64 692.422 1467.06 691.519C1475.8 688.158 1482.02 679.697 1482.02 669.763H1482.05C1483.1 669.778 1484.07 669.226 1484.6 668.318C1485.13 667.41 1485.13 666.287 1484.6 665.379C1484.07 664.471 1483.1 663.918 1482.05 663.933H1478.73C1478.99 663.003 1479.13 662.03 1479.13 661.018C1479.13 657.727 1477.76 654.734 1475.49 652.597L1471.61 657.032C1472.65 658.082 1473.31 659.464 1473.31 661.018C1473.31 662.085 1473 663.072 1472.49 663.933H1427.52C1427.01 663.072 1426.7 662.085 1426.7 661.018C1426.7 658.45 1428.38 656.221 1430.87 655.478C1431.8 655.195 1432.54 654.461 1432.82 653.525C1433.56 651.032 1435.79 649.357 1438.35 649.357C1439.32 649.357 1440.28 649.621 1441.2 650.143C1442.55 650.913 1444.27 650.484 1445.1 649.169C1446.18 647.464 1448.01 646.442 1450 646.442C1452 646.442 1453.83 647.464 1454.91 649.169C1455.74 650.484 1457.46 650.913 1458.81 650.143C1460.1 649.414 1461.48 649.255 1462.75 649.511L1459.47 653.269C1458.73 654.045 1458.48 655.161 1458.81 656.177C1459.14 657.193 1460 657.947 1461.05 658.141C1462.1 658.334 1463.18 657.937 1463.85 657.106L1484.24 633.785C1485 632.931 1485.2 631.707 1484.73 630.658C1484.27 629.609 1483.23 628.93 1482.09 628.923C1481.23 628.919 1480.41 629.294 1479.86 629.947L1466.88 644.785C1465.3 643.983 1463.53 643.527 1461.66 643.527C1461.16 643.527 1460.68 643.577 1460.19 643.641L1467.15 630.3C1467.65 629.381 1467.61 628.267 1467.06 627.379C1466.51 626.492 1465.53 625.966 1464.49 626.002Z" fill="black"/>
</g>
<g id="Ultralight-S">
<path id="Vector_15" d="M574.489 626.002C573.426 626.037 572.466 626.651 571.986 627.602L564.681 641.614C563.229 640.971 561.65 640.612 560.005 640.612C556.862 640.612 553.923 641.867 551.761 644.056C550.657 643.704 549.513 643.527 548.354 643.527C543.705 643.527 539.616 646.239 537.761 650.416C533.587 652.273 530.877 656.365 530.877 661.018C530.877 662.03 531.022 663.003 531.275 663.933H527.964C526.914 663.915 525.935 664.463 525.403 665.369C524.87 666.275 524.866 667.397 525.391 668.307C525.917 669.217 526.891 669.773 527.941 669.763C527.941 679.71 534.176 688.178 542.938 691.53C542.368 692.434 542.339 693.578 542.861 694.51C543.383 695.442 544.373 696.014 545.441 696H574.569C575.638 696.012 576.629 695.438 577.149 694.502C577.669 693.567 577.635 692.422 577.06 691.519C585.805 688.158 592.023 679.697 592.023 669.763H592.046C593.096 669.778 594.073 669.226 594.603 668.318C595.132 667.41 595.132 666.287 594.603 665.379C594.073 664.471 593.096 663.918 592.046 663.933H588.735C588.988 663.003 589.133 662.03 589.133 661.018C589.133 657.727 587.758 654.734 585.486 652.597L581.612 657.032C582.646 658.082 583.307 659.464 583.307 661.018C583.307 662.085 582.996 663.072 582.494 663.933H537.516C537.014 663.072 536.702 662.085 536.702 661.018C536.702 658.45 538.376 656.221 540.867 655.478C541.802 655.195 542.536 654.461 542.818 653.525C543.561 651.032 545.787 649.357 548.354 649.357C549.324 649.357 550.278 649.621 551.198 650.143C552.553 650.913 554.271 650.484 555.101 649.169C556.182 647.464 558.01 646.442 560.005 646.442C562 646.442 563.831 647.464 564.914 649.169C565.745 650.484 567.457 650.913 568.811 650.143C570.099 649.414 571.477 649.255 572.748 649.511L569.466 653.269C568.731 654.045 568.48 655.161 568.811 656.177C569.142 657.193 570.002 657.947 571.053 658.141C572.103 658.334 573.175 657.937 573.846 657.106L594.236 633.785C595.002 632.931 595.196 631.707 594.732 630.658C594.268 629.609 593.232 628.93 592.085 628.923C591.228 628.919 590.412 629.294 589.855 629.947L576.878 644.785C575.301 643.983 573.529 643.527 571.656 643.527C571.164 643.527 570.678 643.577 570.194 643.641L577.152 630.3C577.647 629.381 577.614 628.267 577.064 627.379C576.514 626.492 575.532 625.966 574.489 626.002Z" fill="black"/>
</g>
</g>
</g>
<defs>
<clipPath id="clip0_258_231">
<rect width="3300" height="2200" fill="white"/>
</clipPath>
</defs>
</svg>
